<?xml version="1.0" encoding="UTF-8"?>
<svg xmlns="http://www.w3.org/2000/svg" xmlns:xlink="http://www.w3.org/1999/xlink" width="520" height="360" viewBox="-20 -20 329 183">
<defs>
<g>
<g id="glyph-0-0">
<path d="M 1.21875 0 L 1.21875 -9.28125 L 6.5625 -9.28125 L 6.5625 0 Z M 1.890625 -0.65625 L 5.90625 -0.65625 L 5.90625 -8.625 L 1.890625 -8.625 Z M 1.890625 -0.65625 "/>
</g>
<g id="glyph-0-1">
<path d="M 3.90625 -9.28125 C 5.070312 -9.28125 5.953125 -9.109375 6.546875 -8.765625 C 7.140625 -8.421875 7.4375 -7.828125 7.4375 -6.984375 C 7.4375 -6.429688 7.285156 -5.972656 6.984375 -5.609375 C 6.679688 -5.253906 6.242188 -5.023438 5.671875 -4.921875 L 5.671875 -4.859375 C 6.054688 -4.796875 6.40625 -4.679688 6.71875 -4.515625 C 7.039062 -4.359375 7.289062 -4.125 7.46875 -3.8125 C 7.65625 -3.507812 7.75 -3.117188 7.75 -2.640625 C 7.75 -1.796875 7.457031 -1.144531 6.875 -0.6875 C 6.300781 -0.226562 5.519531 0 4.53125 0 L 1.265625 0 L 1.265625 -9.28125 Z M 4.140625 -5.328125 C 4.941406 -5.328125 5.488281 -5.453125 5.78125 -5.703125 C 6.082031 -5.960938 6.234375 -6.34375 6.234375 -6.84375 C 6.234375 -7.363281 6.050781 -7.734375 5.6875 -7.953125 C 5.320312 -8.171875 4.75 -8.28125 3.96875 -8.28125 L 2.4375 -8.28125 L 2.4375 -5.328125 Z M 2.4375 -4.359375 L 2.4375 -0.984375 L 4.296875 -0.984375 C 5.117188 -0.984375 5.691406 -1.144531 6.015625 -1.46875 C 6.335938 -1.789062 6.5 -2.210938 6.5 -2.734375 C 6.5 -3.210938 6.332031 -3.601562 6 -3.90625 C 5.664062 -4.207031 5.070312 -4.359375 4.21875 -4.359375 Z M 2.4375 -4.359375 "/>
</g>
<g id="glyph-0-2">
<path d="M 4.359375 -7.09375 C 4.484375 -7.09375 4.617188 -7.085938 4.765625 -7.078125 C 4.921875 -7.066406 5.054688 -7.046875 5.171875 -7.015625 L 5.03125 -5.96875 C 4.914062 -5.988281 4.789062 -6.007812 4.65625 -6.03125 C 4.519531 -6.050781 4.394531 -6.0625 4.28125 -6.0625 C 3.925781 -6.0625 3.59375 -5.960938 3.28125 -5.765625 C 2.96875 -5.566406 2.71875 -5.289062 2.53125 -4.9375 C 2.34375 -4.59375 2.25 -4.1875 2.25 -3.71875 L 2.25 0 L 1.109375 0 L 1.109375 -6.96875 L 2.046875 -6.96875 L 2.171875 -5.6875 L 2.21875 -5.6875 C 2.445312 -6.070312 2.738281 -6.398438 3.09375 -6.671875 C 3.445312 -6.953125 3.867188 -7.09375 4.359375 -7.09375 Z M 4.359375 -7.09375 "/>
</g>
<g id="glyph-0-3">
<path d="M 8.625 0 L 7.25 0 L 2.28125 -7.703125 L 2.234375 -7.703125 C 2.253906 -7.398438 2.273438 -7.023438 2.296875 -6.578125 C 2.328125 -6.128906 2.34375 -5.664062 2.34375 -5.1875 L 2.34375 0 L 1.265625 0 L 1.265625 -9.28125 L 2.609375 -9.28125 L 7.5625 -1.59375 L 7.625 -1.59375 C 7.613281 -1.738281 7.597656 -1.945312 7.578125 -2.21875 C 7.566406 -2.5 7.554688 -2.800781 7.546875 -3.125 C 7.535156 -3.457031 7.53125 -3.765625 7.53125 -4.046875 L 7.53125 -9.28125 L 8.625 -9.28125 Z M 8.625 0 "/>
</g>
<g id="glyph-0-4">
<path d="M 8.359375 0 L 7.1875 0 L 7.1875 -4.328125 L 2.4375 -4.328125 L 2.4375 0 L 1.265625 0 L 1.265625 -9.28125 L 2.4375 -9.28125 L 2.4375 -5.359375 L 7.1875 -5.359375 L 7.1875 -9.28125 L 8.359375 -9.28125 Z M 8.359375 0 "/>
</g>
</g>
</defs>
<path fill="none" stroke-width="0.05" stroke-linecap="butt" stroke-linejoin="miter" stroke="rgb(0%, 0%, 0%)" stroke-opacity="1" stroke-miterlimit="10" d="M 2.169189 3.415576 L 1.181885 3.126123 " transform="matrix(40, 0, 0, 40, 10.25586, 3.267578)"/>
<path fill="none" stroke-width="0.05" stroke-linecap="butt" stroke-linejoin="miter" stroke="rgb(0%, 0%, 0%)" stroke-opacity="1" stroke-miterlimit="10" d="M 2.128271 3.247314 L 1.307178 3.006494 " transform="matrix(40, 0, 0, 40, 10.25586, 3.267578)"/>
<path fill="none" stroke-width="0.05" stroke-linecap="butt" stroke-linejoin="miter" stroke="rgb(0%, 0%, 0%)" stroke-opacity="1" stroke-miterlimit="10" d="M 1.19917 3.144189 L 0.956201 2.144385 " transform="matrix(40, 0, 0, 40, 10.25586, 3.267578)"/>
<path fill="none" stroke-width="0.05" stroke-linecap="butt" stroke-linejoin="miter" stroke="rgb(0%, 0%, 0%)" stroke-opacity="1" stroke-miterlimit="10" d="M 0.959619 2.158447 L 1.693506 1.458154 " transform="matrix(40, 0, 0, 40, 10.25586, 3.267578)"/>
<path fill="none" stroke-width="0.05" stroke-linecap="butt" stroke-linejoin="miter" stroke="rgb(0%, 0%, 0%)" stroke-opacity="1" stroke-miterlimit="10" d="M 1.12583 2.207178 L 1.734424 1.626416 " transform="matrix(40, 0, 0, 40, 10.25586, 3.267578)"/>
<path fill="none" stroke-width="0.05" stroke-linecap="butt" stroke-linejoin="miter" stroke="rgb(0%, 0%, 0%)" stroke-opacity="1" stroke-miterlimit="10" d="M 1.669189 1.464014 L 2.656494 1.753564 " transform="matrix(40, 0, 0, 40, 10.25586, 3.267578)"/>
<path fill="none" stroke-width="0.05" stroke-linecap="butt" stroke-linejoin="miter" stroke="rgb(0%, 0%, 0%)" stroke-opacity="1" stroke-miterlimit="10" d="M 2.639209 1.7354 L 2.87876 2.721143 " transform="matrix(40, 0, 0, 40, 10.25586, 3.267578)"/>
<path fill="none" stroke-width="0.05" stroke-linecap="butt" stroke-linejoin="miter" stroke="rgb(0%, 0%, 0%)" stroke-opacity="1" stroke-miterlimit="10" d="M 2.513916 1.855029 L 2.712549 2.672412 " transform="matrix(40, 0, 0, 40, 10.25586, 3.267578)"/>
<path fill="none" stroke-width="0.05" stroke-linecap="butt" stroke-linejoin="miter" stroke="rgb(0%, 0%, 0%)" stroke-opacity="1" stroke-miterlimit="10" d="M 2.889209 2.711182 L 2.144873 3.421533 " transform="matrix(40, 0, 0, 40, 10.25586, 3.267578)"/>
<path fill="none" stroke-width="0.05" stroke-linecap="butt" stroke-linejoin="miter" stroke="rgb(0%, 0%, 0%)" stroke-opacity="1" stroke-miterlimit="10" d="M 0.973486 2.162549 L 0.289209 1.961865 " transform="matrix(40, 0, 0, 40, 10.25586, 3.267578)"/>
<path fill="none" stroke-width="0.05" stroke-linecap="butt" stroke-linejoin="miter" stroke="rgb(0%, 0%, 0%)" stroke-opacity="1" stroke-miterlimit="10" d="M 2.86499 2.717139 L 3.610986 2.935889 " transform="matrix(40, 0, 0, 40, 10.25586, 3.267578)"/>
<path fill="none" stroke-width="0.05" stroke-linecap="butt" stroke-linejoin="miter" stroke="rgb(0%, 0%, 0%)" stroke-opacity="1" stroke-miterlimit="10" d="M 4.037061 2.813037 L 4.561865 2.312158 " transform="matrix(40, 0, 0, 40, 10.25586, 3.267578)"/>
<path fill="none" stroke-width="0.05" stroke-linecap="butt" stroke-linejoin="miter" stroke="rgb(0%, 0%, 0%)" stroke-opacity="1" stroke-miterlimit="10" d="M 4.561865 2.312158 L 5.451416 1.860107 " transform="matrix(40, 0, 0, 40, 10.25586, 3.267578)"/>
<path fill="none" stroke-width="0.05" stroke-linecap="butt" stroke-linejoin="miter" stroke="rgb(0%, 0%, 0%)" stroke-opacity="1" stroke-miterlimit="10" d="M 4.561865 2.312158 L 5.10542 1.356201 " transform="matrix(40, 0, 0, 40, 10.25586, 3.267578)"/>
<path fill="none" stroke-width="0.05" stroke-linecap="butt" stroke-linejoin="miter" stroke="rgb(0%, 0%, 0%)" stroke-opacity="1" stroke-miterlimit="10" d="M 5.451416 1.860107 L 5.451416 0.949365 " transform="matrix(40, 0, 0, 40, 10.25586, 3.267578)"/>
<path fill="none" stroke-width="0.05" stroke-linecap="butt" stroke-linejoin="miter" stroke="rgb(0%, 0%, 0%)" stroke-opacity="1" stroke-miterlimit="10" d="M 5.451416 1.860107 L 6.362549 2.322998 " transform="matrix(40, 0, 0, 40, 10.25586, 3.267578)"/>
<path fill="none" stroke-width="0.05" stroke-linecap="butt" stroke-linejoin="miter" stroke="rgb(0%, 0%, 0%)" stroke-opacity="1" stroke-miterlimit="10" d="M 6.329443 2.332959 L 6.88833 1.350439 " transform="matrix(40, 0, 0, 40, 10.25586, 3.267578)"/>
<path fill="none" stroke-width="0.05" stroke-linecap="butt" stroke-linejoin="miter" stroke="rgb(0%, 0%, 0%)" stroke-opacity="1" stroke-miterlimit="10" d="M 5.448193 0.961768 L 5.995264 0.0000488274 " transform="matrix(40, 0, 0, 40, 10.25586, 3.267578)"/>
<path fill="none" stroke-width="0.05" stroke-linecap="butt" stroke-linejoin="miter" stroke="rgb(0%, 0%, 0%)" stroke-opacity="1" stroke-miterlimit="10" d="M 5.983936 -0.00571289 L 6.898682 0.458936 " transform="matrix(40, 0, 0, 40, 10.25586, 3.267578)"/>
<path fill="none" stroke-width="0.05" stroke-linecap="butt" stroke-linejoin="miter" stroke="rgb(0%, 0%, 0%)" stroke-opacity="1" stroke-miterlimit="10" d="M 6.88501 1.362842 L 6.88501 0.43667 " transform="matrix(40, 0, 0, 40, 10.25586, 3.267578)"/>
<path fill="none" stroke-width="0.05" stroke-linecap="butt" stroke-linejoin="miter" stroke="rgb(0%, 0%, 0%)" stroke-opacity="1" stroke-miterlimit="10" d="M 6.88501 1.356201 L 5.983936 1.814014 " transform="matrix(40, 0, 0, 40, 10.25586, 3.267578)"/>
<path fill="none" stroke-width="0.05" stroke-linecap="butt" stroke-linejoin="miter" stroke="rgb(0%, 0%, 0%)" stroke-opacity="1" stroke-miterlimit="10" d="M 5.10542 1.356201 L 6.006592 1.814014 " transform="matrix(40, 0, 0, 40, 10.25586, 3.267578)"/>
<path fill="none" stroke-width="0.05" stroke-linecap="butt" stroke-linejoin="miter" stroke="rgb(0%, 0%, 0%)" stroke-opacity="1" stroke-miterlimit="10" d="M 5.10542 1.356201 L 5.10542 0.43667 " transform="matrix(40, 0, 0, 40, 10.25586, 3.267578)"/>
<path fill="none" stroke-width="0.05" stroke-linecap="butt" stroke-linejoin="miter" stroke="rgb(0%, 0%, 0%)" stroke-opacity="1" stroke-miterlimit="10" d="M 5.091748 0.458936 L 6.006592 -0.00571289 " transform="matrix(40, 0, 0, 40, 10.25586, 3.267578)"/>
<g fill="rgb(64.999998%, 16%, 16%)" fill-opacity="1">
<use xlink:href="#glyph-0-1" x="2.8125" y="82.992188"/>
<use xlink:href="#glyph-0-2" x="11.2625" y="82.992188"/>
</g>
<g fill="rgb(19%, 31%, 97.000003%)" fill-opacity="1">
<use xlink:href="#glyph-0-3" x="158.851563" y="128.011719"/>
</g>
<g fill="rgb(19%, 31%, 97.000003%)" fill-opacity="1">
<use xlink:href="#glyph-0-4" x="158.980469" y="138.625"/>
</g>
</svg>
