<?xml version="1.0" encoding="UTF-8"?>
<svg xmlns="http://www.w3.org/2000/svg" xmlns:xlink="http://www.w3.org/1999/xlink" width="281" height="200" viewBox="0 0 281 200">
<defs>
<g>
<g id="glyph-0-0">
<path d="M 1.21875 0 L 1.21875 -9.28125 L 6.5625 -9.28125 L 6.5625 0 Z M 1.890625 -0.65625 L 5.90625 -0.65625 L 5.90625 -8.625 L 1.890625 -8.625 Z M 1.890625 -0.65625 "/>
</g>
<g id="glyph-0-1">
<path d="M 3.90625 -9.28125 C 5.070312 -9.28125 5.953125 -9.109375 6.546875 -8.765625 C 7.140625 -8.421875 7.4375 -7.828125 7.4375 -6.984375 C 7.4375 -6.429688 7.285156 -5.972656 6.984375 -5.609375 C 6.679688 -5.253906 6.242188 -5.023438 5.671875 -4.921875 L 5.671875 -4.859375 C 6.054688 -4.796875 6.40625 -4.679688 6.71875 -4.515625 C 7.039062 -4.359375 7.289062 -4.125 7.46875 -3.8125 C 7.65625 -3.507812 7.75 -3.117188 7.75 -2.640625 C 7.75 -1.796875 7.457031 -1.144531 6.875 -0.6875 C 6.300781 -0.226562 5.519531 0 4.53125 0 L 1.265625 0 L 1.265625 -9.28125 Z M 4.140625 -5.328125 C 4.941406 -5.328125 5.488281 -5.453125 5.78125 -5.703125 C 6.082031 -5.960938 6.234375 -6.34375 6.234375 -6.84375 C 6.234375 -7.363281 6.050781 -7.734375 5.6875 -7.953125 C 5.320312 -8.171875 4.75 -8.28125 3.96875 -8.28125 L 2.4375 -8.28125 L 2.4375 -5.328125 Z M 2.4375 -4.359375 L 2.4375 -0.984375 L 4.296875 -0.984375 C 5.117188 -0.984375 5.691406 -1.144531 6.015625 -1.46875 C 6.335938 -1.789062 6.5 -2.210938 6.5 -2.734375 C 6.5 -3.210938 6.332031 -3.601562 6 -3.90625 C 5.664062 -4.207031 5.070312 -4.359375 4.21875 -4.359375 Z M 2.4375 -4.359375 "/>
</g>
<g id="glyph-0-2">
<path d="M 4.359375 -7.09375 C 4.484375 -7.09375 4.617188 -7.085938 4.765625 -7.078125 C 4.921875 -7.066406 5.054688 -7.046875 5.171875 -7.015625 L 5.03125 -5.96875 C 4.914062 -5.988281 4.789062 -6.007812 4.65625 -6.03125 C 4.519531 -6.050781 4.394531 -6.0625 4.28125 -6.0625 C 3.925781 -6.0625 3.59375 -5.960938 3.28125 -5.765625 C 2.96875 -5.566406 2.71875 -5.289062 2.53125 -4.9375 C 2.34375 -4.59375 2.25 -4.1875 2.25 -3.71875 L 2.25 0 L 1.109375 0 L 1.109375 -6.96875 L 2.046875 -6.96875 L 2.171875 -5.6875 L 2.21875 -5.6875 C 2.445312 -6.070312 2.738281 -6.398438 3.09375 -6.671875 C 3.445312 -6.953125 3.867188 -7.09375 4.359375 -7.09375 Z M 4.359375 -7.09375 "/>
</g>
<g id="glyph-0-3">
<path d="M 8.625 0 L 7.25 0 L 2.28125 -7.703125 L 2.234375 -7.703125 C 2.253906 -7.398438 2.273438 -7.023438 2.296875 -6.578125 C 2.328125 -6.128906 2.34375 -5.664062 2.34375 -5.1875 L 2.34375 0 L 1.265625 0 L 1.265625 -9.28125 L 2.609375 -9.28125 L 7.5625 -1.59375 L 7.625 -1.59375 C 7.613281 -1.738281 7.597656 -1.945312 7.578125 -2.21875 C 7.566406 -2.5 7.554688 -2.800781 7.546875 -3.125 C 7.535156 -3.457031 7.53125 -3.765625 7.53125 -4.046875 L 7.53125 -9.28125 L 8.625 -9.28125 Z M 8.625 0 "/>
</g>
<g id="glyph-0-4">
<path d="M 9.359375 -4.65625 C 9.359375 -3.695312 9.195312 -2.859375 8.875 -2.140625 C 8.550781 -1.421875 8.070312 -0.863281 7.4375 -0.46875 C 6.800781 -0.0703125 6.015625 0.125 5.078125 0.125 C 4.117188 0.125 3.320312 -0.0703125 2.6875 -0.46875 C 2.050781 -0.863281 1.578125 -1.421875 1.265625 -2.140625 C 0.953125 -2.859375 0.796875 -3.703125 0.796875 -4.671875 C 0.796875 -5.617188 0.953125 -6.445312 1.265625 -7.15625 C 1.578125 -7.875 2.050781 -8.429688 2.6875 -8.828125 C 3.320312 -9.222656 4.125 -9.421875 5.09375 -9.421875 C 6.019531 -9.421875 6.800781 -9.222656 7.4375 -8.828125 C 8.070312 -8.429688 8.550781 -7.875 8.875 -7.15625 C 9.195312 -6.445312 9.359375 -5.613281 9.359375 -4.65625 Z M 2.03125 -4.65625 C 2.03125 -3.488281 2.273438 -2.566406 2.765625 -1.890625 C 3.265625 -1.222656 4.035156 -0.890625 5.078125 -0.890625 C 6.140625 -0.890625 6.910156 -1.222656 7.390625 -1.890625 C 7.878906 -2.566406 8.125 -3.488281 8.125 -4.65625 C 8.125 -5.820312 7.878906 -6.734375 7.390625 -7.390625 C 6.910156 -8.054688 6.144531 -8.390625 5.09375 -8.390625 C 4.039062 -8.390625 3.265625 -8.054688 2.765625 -7.390625 C 2.273438 -6.734375 2.03125 -5.820312 2.03125 -4.65625 Z M 2.03125 -4.65625 "/>
</g>
<g id="glyph-0-5">
<path d="M 5.234375 -8.390625 C 4.242188 -8.390625 3.460938 -8.054688 2.890625 -7.390625 C 2.316406 -6.722656 2.03125 -5.804688 2.03125 -4.640625 C 2.03125 -3.484375 2.296875 -2.566406 2.828125 -1.890625 C 3.359375 -1.222656 4.15625 -0.890625 5.21875 -0.890625 C 5.632812 -0.890625 6.019531 -0.925781 6.375 -1 C 6.738281 -1.070312 7.097656 -1.160156 7.453125 -1.265625 L 7.453125 -0.25 C 7.097656 -0.113281 6.738281 -0.0195312 6.375 0.03125 C 6.007812 0.09375 5.570312 0.125 5.0625 0.125 C 4.113281 0.125 3.320312 -0.0664062 2.6875 -0.453125 C 2.050781 -0.847656 1.578125 -1.40625 1.265625 -2.125 C 0.953125 -2.84375 0.796875 -3.6875 0.796875 -4.65625 C 0.796875 -5.59375 0.960938 -6.414062 1.296875 -7.125 C 1.640625 -7.84375 2.144531 -8.398438 2.8125 -8.796875 C 3.488281 -9.203125 4.300781 -9.40625 5.25 -9.40625 C 6.226562 -9.40625 7.082031 -9.222656 7.8125 -8.859375 L 7.34375 -7.875 C 7.0625 -8.007812 6.742188 -8.128906 6.390625 -8.234375 C 6.035156 -8.335938 5.648438 -8.390625 5.234375 -8.390625 Z M 5.234375 -8.390625 "/>
</g>
<g id="glyph-0-6">
<path d="M 8.359375 0 L 7.1875 0 L 7.1875 -4.328125 L 2.4375 -4.328125 L 2.4375 0 L 1.265625 0 L 1.265625 -9.28125 L 2.4375 -9.28125 L 2.4375 -5.359375 L 7.1875 -5.359375 L 7.1875 -9.28125 L 8.359375 -9.28125 Z M 8.359375 0 "/>
</g>
<g id="glyph-0-7">
<path d="M 6.40625 -7.109375 C 6.40625 -6.484375 6.234375 -5.984375 5.890625 -5.609375 C 5.546875 -5.242188 5.078125 -5.003906 4.484375 -4.890625 L 4.484375 -4.84375 C 5.234375 -4.75 5.785156 -4.507812 6.140625 -4.125 C 6.503906 -3.75 6.6875 -3.253906 6.6875 -2.640625 C 6.6875 -2.097656 6.5625 -1.617188 6.3125 -1.203125 C 6.0625 -0.785156 5.675781 -0.457031 5.15625 -0.21875 C 4.632812 0.0078125 3.960938 0.125 3.140625 0.125 C 2.648438 0.125 2.195312 0.0859375 1.78125 0.015625 C 1.363281 -0.0546875 0.960938 -0.1875 0.578125 -0.375 L 0.578125 -1.4375 C 0.972656 -1.25 1.394531 -1.097656 1.84375 -0.984375 C 2.289062 -0.878906 2.722656 -0.828125 3.140625 -0.828125 C 3.972656 -0.828125 4.570312 -0.988281 4.9375 -1.3125 C 5.3125 -1.644531 5.5 -2.097656 5.5 -2.671875 C 5.5 -3.242188 5.269531 -3.65625 4.8125 -3.90625 C 4.363281 -4.164062 3.726562 -4.296875 2.90625 -4.296875 L 2 -4.296875 L 2 -5.28125 L 2.90625 -5.28125 C 3.675781 -5.28125 4.253906 -5.4375 4.640625 -5.75 C 5.035156 -6.070312 5.234375 -6.5 5.234375 -7.03125 C 5.234375 -7.476562 5.082031 -7.828125 4.78125 -8.078125 C 4.476562 -8.328125 4.066406 -8.453125 3.546875 -8.453125 C 3.046875 -8.453125 2.617188 -8.378906 2.265625 -8.234375 C 1.910156 -8.085938 1.554688 -7.898438 1.203125 -7.671875 L 0.640625 -8.453125 C 0.960938 -8.710938 1.367188 -8.9375 1.859375 -9.125 C 2.347656 -9.3125 2.90625 -9.40625 3.53125 -9.40625 C 4.5 -9.40625 5.21875 -9.1875 5.6875 -8.75 C 6.164062 -8.320312 6.40625 -7.773438 6.40625 -7.109375 Z M 6.40625 -7.109375 "/>
</g>
</g>
</defs>
<path fill="none" stroke-width="0.05" stroke-linecap="butt" stroke-linejoin="miter" stroke="rgb(0%, 0%, 0%)" stroke-opacity="1" stroke-miterlimit="10" d="M 1.109326 2.416943 L 0.399072 1.672607 " transform="matrix(40, 0, 0, 40, 10.365235, 8.392578)"/>
<path fill="none" stroke-width="0.05" stroke-linecap="butt" stroke-linejoin="miter" stroke="rgb(0%, 0%, 0%)" stroke-opacity="1" stroke-miterlimit="10" d="M 1.158057 2.250732 L 0.567334 1.631689 " transform="matrix(40, 0, 0, 40, 10.365235, 8.392578)"/>
<path fill="none" stroke-width="0.05" stroke-linecap="butt" stroke-linejoin="miter" stroke="rgb(0%, 0%, 0%)" stroke-opacity="1" stroke-miterlimit="10" d="M 0.404932 1.696924 L 0.694385 0.709619 " transform="matrix(40, 0, 0, 40, 10.365235, 8.392578)"/>
<path fill="none" stroke-width="0.05" stroke-linecap="butt" stroke-linejoin="miter" stroke="rgb(0%, 0%, 0%)" stroke-opacity="1" stroke-miterlimit="10" d="M 0.690381 0.723486 L 1.676123 0.483936 " transform="matrix(40, 0, 0, 40, 10.365235, 8.392578)"/>
<path fill="none" stroke-width="0.05" stroke-linecap="butt" stroke-linejoin="miter" stroke="rgb(0%, 0%, 0%)" stroke-opacity="1" stroke-miterlimit="10" d="M 0.809912 0.848779 L 1.627393 0.650146 " transform="matrix(40, 0, 0, 40, 10.365235, 8.392578)"/>
<path fill="none" stroke-width="0.05" stroke-linecap="butt" stroke-linejoin="miter" stroke="rgb(0%, 0%, 0%)" stroke-opacity="1" stroke-miterlimit="10" d="M 1.6521 0.476904 L 2.362354 1.22124 " transform="matrix(40, 0, 0, 40, 10.365235, 8.392578)"/>
<path fill="none" stroke-width="0.05" stroke-linecap="butt" stroke-linejoin="miter" stroke="rgb(0%, 0%, 0%)" stroke-opacity="1" stroke-miterlimit="10" d="M 2.356494 1.196924 L 2.071045 2.170361 " transform="matrix(40, 0, 0, 40, 10.365235, 8.392578)"/>
<path fill="none" stroke-width="0.05" stroke-linecap="butt" stroke-linejoin="miter" stroke="rgb(0%, 0%, 0%)" stroke-opacity="1" stroke-miterlimit="10" d="M 2.188135 1.237842 L 1.951514 2.045068 " transform="matrix(40, 0, 0, 40, 10.365235, 8.392578)"/>
<path fill="none" stroke-width="0.05" stroke-linecap="butt" stroke-linejoin="miter" stroke="rgb(0%, 0%, 0%)" stroke-opacity="1" stroke-miterlimit="10" d="M 2.085107 2.167041 L 1.085303 2.409912 " transform="matrix(40, 0, 0, 40, 10.365235, 8.392578)"/>
<path fill="none" stroke-width="0.05" stroke-linecap="butt" stroke-linejoin="miter" stroke="rgb(0%, 0%, 0%)" stroke-opacity="1" stroke-miterlimit="10" d="M 0.700342 0.733936 L 0.219873 0.23042 " transform="matrix(40, 0, 0, 40, 10.365235, 8.392578)"/>
<path fill="none" stroke-width="0.05" stroke-linecap="butt" stroke-linejoin="miter" stroke="rgb(0%, 0%, 0%)" stroke-opacity="1" stroke-miterlimit="10" d="M 2.061084 2.16001 L 2.571338 2.694678 " transform="matrix(40, 0, 0, 40, 10.365235, 8.392578)"/>
<path fill="none" stroke-width="0.05" stroke-linecap="butt" stroke-linejoin="miter" stroke="rgb(0%, 0%, 0%)" stroke-opacity="1" stroke-miterlimit="10" d="M 2.985107 2.839502 L 3.733154 2.657764 " transform="matrix(40, 0, 0, 40, 10.365235, 8.392578)"/>
<path fill="none" stroke-width="0.05" stroke-linecap="butt" stroke-linejoin="miter" stroke="rgb(0%, 0%, 0%)" stroke-opacity="1" stroke-miterlimit="10" d="M 3.733154 2.657764 L 4.729639 2.710986 " transform="matrix(40, 0, 0, 40, 10.365235, 8.392578)"/>
<path fill="none" stroke-width="0.05" stroke-linecap="butt" stroke-linejoin="miter" stroke="rgb(0%, 0%, 0%)" stroke-opacity="1" stroke-miterlimit="10" d="M 3.733154 2.657764 L 4.681885 2.101611 " transform="matrix(40, 0, 0, 40, 10.365235, 8.392578)"/>
<path fill="none" stroke-width="0.05" stroke-linecap="butt" stroke-linejoin="miter" stroke="rgb(0%, 0%, 0%)" stroke-opacity="1" stroke-miterlimit="10" d="M 4.729639 2.710986 L 5.184912 1.922314 " transform="matrix(40, 0, 0, 40, 10.365235, 8.392578)"/>
<path fill="none" stroke-width="0.05" stroke-linecap="butt" stroke-linejoin="miter" stroke="rgb(0%, 0%, 0%)" stroke-opacity="1" stroke-miterlimit="10" d="M 4.729639 2.710986 L 5.287158 3.567432 " transform="matrix(40, 0, 0, 40, 10.365235, 8.392578)"/>
<path fill="none" stroke-width="0.05" stroke-linecap="butt" stroke-linejoin="miter" stroke="rgb(0%, 0%, 0%)" stroke-opacity="1" stroke-miterlimit="10" d="M 5.253564 3.559521 L 6.22876 2.988037 " transform="matrix(40, 0, 0, 40, 10.365235, 8.392578)"/>
<path fill="none" stroke-width="0.05" stroke-linecap="butt" stroke-linejoin="miter" stroke="rgb(0%, 0%, 0%)" stroke-opacity="1" stroke-miterlimit="10" d="M 5.175928 1.931396 L 6.130615 1.372021 " transform="matrix(40, 0, 0, 40, 10.365235, 8.392578)"/>
<path fill="none" stroke-width="0.05" stroke-linecap="butt" stroke-linejoin="miter" stroke="rgb(0%, 0%, 0%)" stroke-opacity="1" stroke-miterlimit="10" d="M 6.123682 1.361377 L 6.683545 2.22124 " transform="matrix(40, 0, 0, 40, 10.365235, 8.392578)"/>
<path fill="none" stroke-width="0.05" stroke-linecap="butt" stroke-linejoin="miter" stroke="rgb(0%, 0%, 0%)" stroke-opacity="1" stroke-miterlimit="10" d="M 6.219775 2.997119 L 6.682861 2.195068 " transform="matrix(40, 0, 0, 40, 10.365235, 8.392578)"/>
<path fill="none" stroke-width="0.05" stroke-linecap="butt" stroke-linejoin="miter" stroke="rgb(0%, 0%, 0%)" stroke-opacity="1" stroke-miterlimit="10" d="M 6.223096 2.991455 L 5.213721 2.937354 " transform="matrix(40, 0, 0, 40, 10.365235, 8.392578)"/>
<path fill="none" stroke-width="0.05" stroke-linecap="butt" stroke-linejoin="miter" stroke="rgb(0%, 0%, 0%)" stroke-opacity="1" stroke-miterlimit="10" d="M 4.681885 2.101611 L 5.23335 2.948682 " transform="matrix(40, 0, 0, 40, 10.365235, 8.392578)"/>
<path fill="none" stroke-width="0.05" stroke-linecap="butt" stroke-linejoin="miter" stroke="rgb(0%, 0%, 0%)" stroke-opacity="1" stroke-miterlimit="10" d="M 4.681885 2.101611 L 5.14165 1.305322 " transform="matrix(40, 0, 0, 40, 10.365235, 8.392578)"/>
<path fill="none" stroke-width="0.05" stroke-linecap="butt" stroke-linejoin="miter" stroke="rgb(0%, 0%, 0%)" stroke-opacity="1" stroke-miterlimit="10" d="M 5.118701 1.317725 L 6.143311 1.372705 " transform="matrix(40, 0, 0, 40, 10.365235, 8.392578)"/>
<path fill="none" stroke-width="0.05" stroke-linecap="butt" stroke-linejoin="miter" stroke="rgb(0%, 0%, 0%)" stroke-opacity="1" stroke-miterlimit="10" d="M 2.688916 3.141162 L 2.476025 3.867334 " transform="matrix(40, 0, 0, 40, 10.365235, 8.392578)"/>
<path fill="none" stroke-width="0.05" stroke-linecap="butt" stroke-linejoin="miter" stroke="rgb(0%, 0%, 0%)" stroke-opacity="1" stroke-miterlimit="10" d="M 2.39585 3.873877 L 2.917139 4.420166 " transform="matrix(40, 0, 0, 40, 10.365235, 8.392578)"/>
<path fill="none" stroke-width="0.05" stroke-linecap="butt" stroke-linejoin="miter" stroke="rgb(0%, 0%, 0%)" stroke-opacity="1" stroke-miterlimit="10" d="M 2.504443 3.770361 L 3.025635 4.31665 " transform="matrix(40, 0, 0, 40, 10.365235, 8.392578)"/>
<path fill="none" stroke-width="0.05" stroke-linecap="butt" stroke-linejoin="miter" stroke="rgb(0%, 0%, 0%)" stroke-opacity="1" stroke-miterlimit="10" d="M 2.494092 3.850049 L 1.727783 4.036279 " transform="matrix(40, 0, 0, 40, 10.365235, 8.392578)"/>
<g fill="rgb(64.999998%, 16%, 16%)" fill-opacity="1">
<use xlink:href="#glyph-0-1" x="2.921875" y="13.035156"/>
<use xlink:href="#glyph-0-2" x="11.371875" y="13.035156"/>
</g>
<g fill="rgb(19%, 31%, 97.000003%)" fill-opacity="1">
<use xlink:href="#glyph-0-3" x="115.882813" y="128.789062"/>
</g>
<g fill="rgb(100%, 5.1%, 5.1%)" fill-opacity="1">
<use xlink:href="#glyph-0-4" x="132.105469" y="196.121094"/>
</g>
<g fill="rgb(0%, 0%, 0%)" fill-opacity="1">
<use xlink:href="#glyph-0-5" x="66.398438" y="176.617188"/>
</g>
<g fill="rgb(0%, 0%, 0%)" fill-opacity="1">
<use xlink:href="#glyph-0-6" x="50.054688" y="176.488281"/>
</g>
<g fill="rgb(0%, 0%, 0%)" fill-opacity="1">
<use xlink:href="#glyph-0-7" x="59.160156" y="180.328125"/>
</g>
</svg>
